<?xml version="1.0" standalone="no"?>
<!DOCTYPE svg PUBLIC "-//W3C//DTD SVG 20010904//EN"
 "http://www.w3.org/TR/2001/REC-SVG-20010904/DTD/svg10.dtd">
<svg version="1.0" xmlns="http://www.w3.org/2000/svg"
 width="612.000000pt" height="612.000000pt" viewBox="0 0 612.000000 612.000000"
 preserveAspectRatio="xMidYMid meet">
<metadata>
Created by potrace 1.11, written by Peter Selinger 2001-2013
</metadata>
<g transform="translate(0.000000,612.000000) scale(0.100000,-0.100000)"
fill="#000000" stroke="none">
<path d="M908 6110 c-74 -22 -137 -85 -157 -155 -16 -59 -16 -4879 1 -4926 17
-51 56 -97 107 -127 37 -21 57 -26 107 -25 34 0 72 6 85 13 20 10 206 145 259
187 8 7 137 102 285 213 149 111 277 206 285 213 9 7 104 78 212 159 l197 147
153 -239 c84 -132 180 -282 213 -334 33 -53 151 -238 263 -413 112 -175 264
-412 337 -528 74 -116 150 -224 170 -242 43 -37 118 -58 179 -49 31 5 123 53
307 159 145 84 407 235 582 336 174 101 329 196 344 210 66 66 83 174 39 258
-15 26 -121 197 -236 378 -243 380 -472 742 -635 1000 -63 99 -121 190 -130
203 -21 29 -13 39 38 52 39 11 529 148 677 190 36 10 99 28 140 39 41 12 100
28 130 37 30 8 75 21 100 29 25 7 98 27 163 45 70 19 135 44 161 62 103 68
127 226 48 319 -14 18 -69 60 -122 94 -99 64 -390 253 -835 540 -143 92 -289
187 -325 210 -573 372 -1147 742 -1216 785 -24 15 -531 343 -704 456 -251 163
-543 352 -620 401 -47 29 -143 92 -215 139 -218 142 -255 162 -310 168 -27 2
-62 1 -77 -4z m508 -780 c119 -77 218 -140 220 -140 3 0 10 -5 17 -10 7 -6 93
-63 192 -127 99 -63 203 -130 230 -148 28 -18 165 -106 305 -197 140 -90 287
-185 325 -210 39 -25 358 -231 710 -458 352 -227 672 -433 710 -458 39 -25 99
-64 135 -87 36 -23 119 -77 185 -120 66 -42 131 -84 143 -92 13 -8 22 -17 19
-19 -5 -6 -424 -125 -557 -159 -8 -2 -89 -25 -180 -50 -91 -26 -178 -50 -195
-55 -279 -75 -293 -80 -341 -132 -42 -45 -63 -103 -59 -164 3 -56 14 -81 79
-182 24 -37 87 -137 141 -222 54 -85 117 -184 140 -220 92 -144 401 -631 410
-647 6 -10 77 -123 159 -251 81 -128 146 -235 144 -237 -2 -2 -163 -97 -358
-210 -283 -165 -356 -203 -365 -193 -6 7 -83 126 -170 263 -186 295 -263 417
-321 505 -23 36 -128 202 -234 370 -106 168 -207 328 -225 355 -17 28 -61 95
-96 150 -35 55 -73 108 -84 117 -54 46 -139 66 -207 48 -37 -10 -147 -80 -186
-117 -8 -7 -35 -27 -60 -45 -26 -17 -49 -34 -52 -37 -3 -4 -165 -125 -360
-271 -195 -146 -363 -272 -372 -280 -9 -8 -29 -22 -45 -32 l-28 -16 0 1959 c0
1077 4 1959 8 1959 4 0 105 -63 223 -140z"/>
</g>
</svg>
